<svg width="16" height="16" viewBox="0 0 16 16" fill="none" xmlns="http://www.w3.org/2000/svg">
<path fill-rule="evenodd" clip-rule="evenodd" d="M2.13388 0.366117C1.64573 -0.122039 0.854272 -0.122039 0.366117 0.366117C-0.122039 0.854272 -0.122039 1.64573 0.366117 2.13388L6.23264 8.0004L0.366118 13.8669C-0.122037 14.3551 -0.122037 15.1465 0.366118 15.6347C0.854274 16.1228 1.64573 16.1228 2.13389 15.6347L8.0004 9.76817L13.8669 15.6347C14.3551 16.1228 15.1465 16.1228 15.6347 15.6347C16.1228 15.1465 16.1228 14.3551 15.6347 13.8669L9.76817 8.0004L15.6347 2.13388C16.1228 1.64573 16.1228 0.854272 15.6347 0.366117C15.1465 -0.122039 14.3551 -0.122039 13.8669 0.366117L8.0004 6.23264L2.13388 0.366117Z" fill="white"/>
</svg>
